<mxfile host="app.diagrams.net" agent="Mozilla/5.0 (Windows NT 10.0; Win64; x64) AppleWebKit/537.36 (KHTML, like Gecko) Chrome/132.0.0.0 Safari/537.36 OPR/117.0.0.0 (Edition std-1)" version="26.2.9">
  <diagram name="Page-1" id="sIWmRNEcSj6Z-1zepn8V">
    <mxGraphModel dx="1612" dy="488" grid="1" gridSize="10" guides="1" tooltips="1" connect="1" arrows="1" fold="1" page="1" pageScale="1" pageWidth="827" pageHeight="1169" math="0" shadow="0">
      <root>
        <mxCell id="0" />
        <mxCell id="1" parent="0" />
        <mxCell id="OeO5FoHWmNg7aut_eNWX-36" value=":Object" style="shape=umlLifeline;perimeter=lifelinePerimeter;whiteSpace=wrap;html=1;container=1;dropTarget=0;collapsible=0;recursiveResize=0;outlineConnect=0;portConstraint=eastwest;newEdgeStyle={&quot;curved&quot;:0,&quot;rounded&quot;:0};size=0;" vertex="1" parent="1">
          <mxGeometry x="130" y="310" width="20" height="440" as="geometry" />
        </mxCell>
        <mxCell id="OeO5FoHWmNg7aut_eNWX-40" value="" style="html=1;points=[[0,0,0,0,5],[0,1,0,0,-5],[1,0,0,0,5],[1,1,0,0,-5]];perimeter=orthogonalPerimeter;outlineConnect=0;targetShapes=umlLifeline;portConstraint=eastwest;newEdgeStyle={&quot;curved&quot;:0,&quot;rounded&quot;:0};" vertex="1" parent="OeO5FoHWmNg7aut_eNWX-36">
          <mxGeometry y="80" width="20" height="40" as="geometry" />
        </mxCell>
        <mxCell id="OeO5FoHWmNg7aut_eNWX-30" value=".write()" style="html=1;verticalAlign=bottom;endArrow=block;curved=0;rounded=0;" edge="1" parent="1">
          <mxGeometry x="0.3636" width="80" relative="1" as="geometry">
            <mxPoint x="-310" y="580" as="sourcePoint" />
            <mxPoint x="130" y="580" as="targetPoint" />
            <mxPoint as="offset" />
          </mxGeometry>
        </mxCell>
        <mxCell id="OeO5FoHWmNg7aut_eNWX-17" value=":Object" style="shape=umlLifeline;perimeter=lifelinePerimeter;whiteSpace=wrap;html=1;container=1;dropTarget=0;collapsible=0;recursiveResize=0;outlineConnect=0;portConstraint=eastwest;newEdgeStyle={&quot;curved&quot;:0,&quot;rounded&quot;:0};movable=1;resizable=1;rotatable=1;deletable=1;editable=1;locked=0;connectable=1;size=0;" vertex="1" parent="1">
          <mxGeometry x="-330" y="330" width="20" height="430" as="geometry" />
        </mxCell>
        <mxCell id="OeO5FoHWmNg7aut_eNWX-13" value=":Object" style="shape=umlLifeline;perimeter=lifelinePerimeter;whiteSpace=wrap;html=1;container=1;dropTarget=0;collapsible=0;recursiveResize=0;outlineConnect=0;portConstraint=eastwest;newEdgeStyle={&quot;curved&quot;:0,&quot;rounded&quot;:0};size=0;" vertex="1" parent="1">
          <mxGeometry x="590" y="315" width="20" height="430" as="geometry" />
        </mxCell>
        <mxCell id="OeO5FoHWmNg7aut_eNWX-34" value="" style="html=1;points=[[0,0,0,0,5],[0,1,0,0,-5],[1,0,0,0,5],[1,1,0,0,-5]];perimeter=orthogonalPerimeter;outlineConnect=0;targetShapes=umlLifeline;portConstraint=eastwest;newEdgeStyle={&quot;curved&quot;:0,&quot;rounded&quot;:0};" vertex="1" parent="OeO5FoHWmNg7aut_eNWX-13">
          <mxGeometry y="280" width="20" height="30" as="geometry" />
        </mxCell>
        <mxCell id="OeO5FoHWmNg7aut_eNWX-12" value=":Object" style="shape=umlLifeline;perimeter=lifelinePerimeter;whiteSpace=wrap;html=1;container=1;dropTarget=0;collapsible=0;recursiveResize=0;outlineConnect=0;portConstraint=eastwest;newEdgeStyle={&quot;curved&quot;:0,&quot;rounded&quot;:0};size=0;" vertex="1" parent="1">
          <mxGeometry x="370" y="315" width="20" height="430" as="geometry" />
        </mxCell>
        <mxCell id="OeO5FoHWmNg7aut_eNWX-32" value="" style="html=1;points=[[0,0,0,0,5],[0,1,0,0,-5],[1,0,0,0,5],[1,1,0,0,-5]];perimeter=orthogonalPerimeter;outlineConnect=0;targetShapes=umlLifeline;portConstraint=eastwest;newEdgeStyle={&quot;curved&quot;:0,&quot;rounded&quot;:0};" vertex="1" parent="OeO5FoHWmNg7aut_eNWX-12">
          <mxGeometry y="270" width="20" height="30" as="geometry" />
        </mxCell>
        <mxCell id="OeO5FoHWmNg7aut_eNWX-11" value=":Object" style="shape=umlLifeline;perimeter=lifelinePerimeter;whiteSpace=wrap;html=1;container=1;dropTarget=0;collapsible=0;recursiveResize=0;outlineConnect=0;portConstraint=eastwest;newEdgeStyle={&quot;curved&quot;:0,&quot;rounded&quot;:0};movable=1;resizable=1;rotatable=1;deletable=1;editable=1;locked=0;connectable=1;size=0;" vertex="1" parent="1">
          <mxGeometry x="-90" y="320" width="20" height="430" as="geometry" />
        </mxCell>
        <mxCell id="OeO5FoHWmNg7aut_eNWX-1" value="point = Point()" style="rounded=0;whiteSpace=wrap;html=1;" vertex="1" parent="1">
          <mxGeometry x="450" y="150" width="120" height="60" as="geometry" />
        </mxCell>
        <mxCell id="OeO5FoHWmNg7aut_eNWX-2" value="InfluxDB bucket" style="shape=cylinder;whiteSpace=wrap;html=1;boundedLbl=1;backgroundOutline=1;" vertex="1" parent="1">
          <mxGeometry x="545" y="270" width="110" height="70" as="geometry" />
        </mxCell>
        <mxCell id="OeO5FoHWmNg7aut_eNWX-5" value="api.write(bucket= , org= , record= )" style="html=1;dashed=0;whiteSpace=wrap;" vertex="1" parent="1">
          <mxGeometry x="510" y="20" width="100" height="50" as="geometry" />
        </mxCell>
        <mxCell id="OeO5FoHWmNg7aut_eNWX-6" value="InfluxDB&lt;div&gt;HTTP API&lt;/div&gt;" style="shape=hexagon;perimeter=hexagonPerimeter2;whiteSpace=wrap;html=1;size=0.25" vertex="1" parent="1">
          <mxGeometry x="320" y="280" width="120" height="60" as="geometry" />
        </mxCell>
        <mxCell id="OeO5FoHWmNg7aut_eNWX-7" value="ESP32" style="shape=cloud;whiteSpace=wrap;html=1;" vertex="1" parent="1">
          <mxGeometry x="-140" y="260" width="120" height="80" as="geometry" />
        </mxCell>
        <mxCell id="OeO5FoHWmNg7aut_eNWX-8" value="api = client.write_api()" style="html=1;dashed=0;whiteSpace=wrap;" vertex="1" parent="1">
          <mxGeometry x="600" y="155" width="100" height="50" as="geometry" />
        </mxCell>
        <mxCell id="OeO5FoHWmNg7aut_eNWX-9" value="client = InfluxDBClient(url= , token= , org= )" style="html=1;dashed=0;whiteSpace=wrap;" vertex="1" parent="1">
          <mxGeometry x="290" y="130" width="100" height="50" as="geometry" />
        </mxCell>
        <mxCell id="OeO5FoHWmNg7aut_eNWX-16" value="influx_script.py" style="shape=note;size=11;whiteSpace=wrap;html=1;" vertex="1" parent="1">
          <mxGeometry x="-370" y="280" width="100" height="60" as="geometry" />
        </mxCell>
        <mxCell id="OeO5FoHWmNg7aut_eNWX-33" value="Line protocol" style="html=1;verticalAlign=bottom;endArrow=block;curved=0;rounded=0;" edge="1" parent="1">
          <mxGeometry width="80" relative="1" as="geometry">
            <mxPoint x="390" y="605" as="sourcePoint" />
            <mxPoint x="590" y="605" as="targetPoint" />
          </mxGeometry>
        </mxCell>
        <mxCell id="OeO5FoHWmNg7aut_eNWX-35" value="InfluxDBClient" style="shape=hexagon;perimeter=hexagonPerimeter2;whiteSpace=wrap;html=1;size=0.2;" vertex="1" parent="1">
          <mxGeometry x="80" y="280" width="120" height="60" as="geometry" />
        </mxCell>
        <mxCell id="OeO5FoHWmNg7aut_eNWX-37" value="URL, token, org" style="html=1;verticalAlign=bottom;endArrow=block;curved=0;rounded=0;" edge="1" parent="1">
          <mxGeometry x="0.3636" width="80" relative="1" as="geometry">
            <mxPoint x="-310" y="390" as="sourcePoint" />
            <mxPoint x="130" y="390" as="targetPoint" />
            <mxPoint as="offset" />
          </mxGeometry>
        </mxCell>
        <mxCell id="OeO5FoHWmNg7aut_eNWX-38" value=".write_api()" style="html=1;verticalAlign=bottom;endArrow=block;curved=0;rounded=0;" edge="1" parent="1">
          <mxGeometry x="0.3636" width="80" relative="1" as="geometry">
            <mxPoint x="-310" y="410" as="sourcePoint" />
            <mxPoint x="130" y="410" as="targetPoint" />
            <mxPoint as="offset" />
          </mxGeometry>
        </mxCell>
        <mxCell id="OeO5FoHWmNg7aut_eNWX-39" value="HTTP POST request" style="html=1;verticalAlign=bottom;endArrow=block;curved=0;rounded=0;" edge="1" parent="1" source="OeO5FoHWmNg7aut_eNWX-41">
          <mxGeometry width="80" relative="1" as="geometry">
            <mxPoint x="150" y="590" as="sourcePoint" />
            <mxPoint x="370" y="590" as="targetPoint" />
          </mxGeometry>
        </mxCell>
        <mxCell id="OeO5FoHWmNg7aut_eNWX-42" value="" style="html=1;verticalAlign=bottom;endArrow=block;curved=0;rounded=0;" edge="1" parent="1" target="OeO5FoHWmNg7aut_eNWX-41">
          <mxGeometry width="80" relative="1" as="geometry">
            <mxPoint x="150" y="590" as="sourcePoint" />
            <mxPoint x="370" y="590" as="targetPoint" />
          </mxGeometry>
        </mxCell>
        <mxCell id="OeO5FoHWmNg7aut_eNWX-41" value="" style="html=1;points=[[0,0,0,0,5],[0,1,0,0,-5],[1,0,0,0,5],[1,1,0,0,-5]];perimeter=orthogonalPerimeter;outlineConnect=0;targetShapes=umlLifeline;portConstraint=eastwest;newEdgeStyle={&quot;curved&quot;:0,&quot;rounded&quot;:0};" vertex="1" parent="1">
          <mxGeometry x="130" y="570" width="20" height="30" as="geometry" />
        </mxCell>
        <mxCell id="OeO5FoHWmNg7aut_eNWX-45" value=".readlines()" style="html=1;verticalAlign=bottom;endArrow=block;curved=0;rounded=0;" edge="1" parent="1">
          <mxGeometry width="80" relative="1" as="geometry">
            <mxPoint x="-310" y="460" as="sourcePoint" />
            <mxPoint x="-90" y="460" as="targetPoint" />
          </mxGeometry>
        </mxCell>
        <mxCell id="OeO5FoHWmNg7aut_eNWX-46" value="List of data bytes" style="html=1;verticalAlign=bottom;endArrow=open;dashed=1;endSize=8;curved=0;rounded=0;" edge="1" parent="1">
          <mxGeometry relative="1" as="geometry">
            <mxPoint x="-90" y="490" as="sourcePoint" />
            <mxPoint x="-310" y="490" as="targetPoint" />
          </mxGeometry>
        </mxCell>
        <mxCell id="OeO5FoHWmNg7aut_eNWX-21" value="" style="html=1;points=[[0,0,0,0,5],[0,1,0,0,-5],[1,0,0,0,5],[1,1,0,0,-5]];perimeter=orthogonalPerimeter;outlineConnect=0;targetShapes=umlLifeline;portConstraint=eastwest;newEdgeStyle={&quot;curved&quot;:0,&quot;rounded&quot;:0};" vertex="1" parent="1">
          <mxGeometry x="-330" y="370" width="20" height="280" as="geometry" />
        </mxCell>
        <mxCell id="OeO5FoHWmNg7aut_eNWX-47" value="" style="group" vertex="1" connectable="0" parent="1">
          <mxGeometry x="-320" y="340" width="40" height="220" as="geometry" />
        </mxCell>
        <mxCell id="OeO5FoHWmNg7aut_eNWX-28" value="" style="html=1;points=[[0,0,0,0,5],[0,1,0,0,-5],[1,0,0,0,5],[1,1,0,0,-5]];perimeter=orthogonalPerimeter;outlineConnect=0;targetShapes=umlLifeline;portConstraint=eastwest;newEdgeStyle={&quot;curved&quot;:0,&quot;rounded&quot;:0};" vertex="1" parent="OeO5FoHWmNg7aut_eNWX-47">
          <mxGeometry y="110" width="20" height="110" as="geometry" />
        </mxCell>
        <mxCell id="OeO5FoHWmNg7aut_eNWX-29" value="Point()" style="html=1;align=left;spacingLeft=2;endArrow=block;rounded=0;edgeStyle=orthogonalEdgeStyle;curved=0;rounded=0;entryX=1;entryY=1;entryDx=0;entryDy=-5;entryPerimeter=0;" edge="1" target="OeO5FoHWmNg7aut_eNWX-28" parent="1">
          <mxGeometry relative="1" as="geometry">
            <mxPoint x="-300" y="510" as="sourcePoint" />
            <Array as="points">
              <mxPoint x="-280" y="510" />
              <mxPoint x="-280" y="555" />
            </Array>
          </mxGeometry>
        </mxCell>
        <mxCell id="OeO5FoHWmNg7aut_eNWX-48" value="" style="html=1;points=[[0,0,0,0,5],[0,1,0,0,-5],[1,0,0,0,5],[1,1,0,0,-5]];perimeter=orthogonalPerimeter;outlineConnect=0;targetShapes=umlLifeline;portConstraint=eastwest;newEdgeStyle={&quot;curved&quot;:0,&quot;rounded&quot;:0};" vertex="1" parent="1">
          <mxGeometry x="-90" y="420" width="20" height="85" as="geometry" />
        </mxCell>
        <mxCell id="OeO5FoHWmNg7aut_eNWX-31" value="loop" style="shape=umlFrame;whiteSpace=wrap;html=1;pointerEvents=0;width=40;height=20;connectable=0;dashed=1;dashPattern=12 12;" vertex="1" parent="1">
          <mxGeometry x="-420" y="440" width="1060" height="200" as="geometry" />
        </mxCell>
      </root>
    </mxGraphModel>
  </diagram>
</mxfile>
